<svg xmlns="http://www.w3.org/2000/svg" xmlns:svg="http://www.w3.org/2000/svg" id="svg2" width="8" height="7.75" version="1.1" viewBox="0 0 8 7.75"><metadata id="metadata8"/><g id="g16" transform="translate(-1,-1)"><path style="fill:#fff;fill-opacity:1" id="path14" d="M 2,1.5 Q 2.25,1.25 2.625,1.125 3,1 3.5,1 4,1 4.5,1 5,1 5.5,1 6,1 6.5,1 7,1 7.375,1.125 7.75,1.25 8,1.5 8.25,1.75 8.5,2 8.75,2.25 8.875,2.625 9,3 9,3.5 9,4 9,4.5 9,5 8.875,5.375 8.75,5.75 8.5,6 8.25,6.25 8,6.5 7.75,6.75 7.375,6.875 7,7 6.5,7 6,7 5.5,7 5,7 4.5,7 4,7 3.625,7.125 3.25,7.25 3.125,7.625 3,8 2.875,8.375 2.75,8.75 2.5,8.75 2.25,8.75 2,8.5 1.75,8.25 1.5,8 1.25,7.75 1.125,7.375 1,7 1,6.5 1,6 1,5.5 1,5 1,4.5 1,4 1,3.5 1,3 1.125,2.625 1.25,2.25 1.5,2 1.75,1.75 2,1.5"/></g></svg>