<svg xmlns="http://www.w3.org/2000/svg" xmlns:svg="http://www.w3.org/2000/svg" id="svg12" width="5.875" height="5.875" version="1.1" viewBox="0 0 5.875 5.875"><metadata id="metadata18"/><g id="g61" transform="translate(-1.0625,-1.0625)"><path style="fill:#fff;fill-opacity:1" id="path59" d="M 5,1.5 Q 5.25,1.25 5.625,1.125 6,1 6.375,1.125 6.75,1.25 6.875,1.625 7,2 6.875,2.375 6.75,2.75 6.5,3 6.25,3.25 6,3.5 5.75,3.75 5.5,4 5.25,4.25 5,4.5 4.75,4.75 4.5,5 4.25,5.25 4.25,5.5 4.25,5.75 4.5,6 4.75,6.25 4.75,6.5 4.75,6.75 4.5,6.75 4.25,6.75 4,6.5 3.75,6.25 3.5,6.25 3.25,6.25 3,6.5 2.75,6.75 2.375,6.875 2,7 1.625,6.875 1.25,6.75 1.125,6.375 1,6 1.125,5.625 1.25,5.25 1.5,5 1.75,4.75 1.75,4.5 1.75,4.25 1.5,4 1.25,3.75 1.25,3.5 1.25,3.25 1.5,3.25 1.75,3.25 2,3.5 2.25,3.75 2.5,3.75 2.75,3.75 3,3.5 3.25,3.25 3.5,3 3.75,2.75 4,2.5 4.25,2.25 4.5,2 4.75,1.75 5,1.5"/></g></svg>