<svg xmlns="http://www.w3.org/2000/svg" xmlns:svg="http://www.w3.org/2000/svg" id="svg2" width="6" height="6" version="1.1" viewBox="0 0 6 6"><metadata id="metadata8"/><g id="g88" transform="translate(-1,-1)"><path style="fill:#fff;fill-opacity:1" id="path84" d="M 2,1.5 Q 2.25,1.25 2.625,1.125 3,1 3.5,1 4,1 4.5,1 5,1 5.375,1.125 5.75,1.25 6,1.5 6.25,1.75 6.5,2 6.75,2.25 6.875,2.625 7,3 7,3.5 7,4 7,4.5 7,5 6.875,5.375 6.75,5.75 6.5,6 6.25,6.25 6,6.5 5.75,6.75 5.375,6.875 5,7 4.5,7 4,7 3.5,7 3,7 2.625,6.875 2.25,6.75 2,6.5 1.75,6.25 1.5,6 1.25,5.75 1.125,5.375 1,5 1,4.5 1,4 1,3.5 1,3 1.125,2.625 1.25,2.25 1.5,2 1.75,1.75 2,1.5 M 3.625,5.875 Q 4,6 4.375,5.875 4.75,5.75 5,5.5 5.25,5.25 5.5,5 5.75,4.75 5.875,4.375 6,4 5.875,3.625 5.75,3.25 5.5,3 5.25,2.75 5,2.5 4.75,2.25 4.375,2.125 4,2 3.625,2.125 3.25,2.25 3,2.5 2.75,2.75 2.5,3 2.25,3.25 2.125,3.625 2,4 2.125,4.375 2.25,4.75 2.5,5 2.75,5.25 3,5.5 3.25,5.75 3.625,5.875"/></g></svg>