<svg xmlns="http://www.w3.org/2000/svg" xmlns:svg="http://www.w3.org/2000/svg" id="svg22" width="5.875" height="5.5" version="1.1" viewBox="0 0 5.875 5.5"><metadata id="metadata28"/><g id="g36" transform="translate(-1.0625,-1.25)"><path style="fill:#fff;fill-opacity:1" id="path34" d="M 3,1.5 Q 3.25,1.25 3.5,1.25 3.75,1.25 3.875,1.625 4,2 4.125,2.375 4.25,2.75 4.625,2.875 5,3 5.5,3 6,3 6.375,3.125 6.75,3.25 6.875,3.625 7,4 6.875,4.375 6.75,4.75 6.375,4.875 6,5 5.5,5 5,5 4.625,5.125 4.25,5.25 4.125,5.625 4,6 3.875,6.375 3.75,6.75 3.5,6.75 3.25,6.75 3,6.5 2.75,6.25 2.5,6 2.25,5.75 2,5.5 1.75,5.25 1.5,5 1.25,4.75 1.125,4.375 1,4 1.125,3.625 1.25,3.25 1.5,3 1.75,2.75 2,2.5 2.25,2.25 2.5,2 2.75,1.75 3,1.5"/></g></svg>