<svg xmlns="http://www.w3.org/2000/svg" xmlns:svg="http://www.w3.org/2000/svg" id="svg817" width="10" height="9.875" version="1.1" viewBox="0 0 10 9.875"><metadata id="metadata823"/><g id="g5280" transform="translate(-0.999269,-1.0631022)"><path style="fill:#fff;fill-opacity:1" id="path5276" d="m -10.472656,-2.8027344 c -0.125,0 -0.25,0.020833 -0.375,0.0625 -0.25,0.083333 -0.416667,0.25 -0.5,0.5 -0.08333,0.25 -0.125,0.5416667 -0.125,0.875 v 1.00000002 1 0.99999998 c 0,0.3333334 0.04167,0.625 0.125,0.875 0.08333,0.25 0.208333,0.4583334 0.375,0.625 l 0.5,0.5 0.4999998,0.5 0.5,0.5 0.5,0.5 0.5,0.5 0.5,0.5 0.5,0.5 c 0.1666666,0.1666667 0.3749999,0.2916667 0.625,0.375 0.25,0.083333 0.4999999,0.083333 0.75,0 0.2499999,-0.083333 0.4583333,-0.2083333 0.625,-0.375 l 0.5,-0.5 0.5,-0.5 0.5,-0.5 0.5,-0.5 0.5,-0.5 0.5,-0.5 0.5,-0.5 c 0.1666666,-0.1666666 0.2916666,-0.375 0.375,-0.625 0.083333,-0.25 0.125,-0.5416666 0.125,-0.875 v -0.99999998 -1 -1.00000002 c 0,-0.3333333 -0.041667,-0.625 -0.125,-0.875 -0.083333,-0.25 -0.25,-0.4166666 -0.5,-0.5 -0.25,-0.083333 -0.5,-0.083333 -0.75,0 -0.2500001,0.083333 -0.4583334,0.2083334 -0.625,0.375 l -0.5,0.5 -0.5,0.5 c -0.1666667,0.1666667 -0.375,0.2916667 -0.625,0.37500002 -0.2500001,0.0833333 -0.5416667,0.125 -0.875,0.125 h -1 c -0.3333334,10e-9 -0.6250001,-0.0416667 -0.875,-0.125 -0.25,-0.0833333 -0.4583334,-0.20833332 -0.625,-0.37500002 l -0.5,-0.5 -0.5,-0.5 c -0.1666667,-0.1666666 -0.375,-0.2916666 -0.6249998,-0.375 -0.125,-0.041667 -0.25,-0.0625 -0.375,-0.0625 z m 0.4999998,1.1875 c 0.1666666,0 0.3333333,0.083333 0.5,0.25 l 0.5,0.50000002 0.5,0.5 c 0.1666666,0.16666667 0.375,0.29166667 0.625,0.37500001 0.2499999,0.08333333 0.5416666,0.12499999 0.875,0.12499999 h 1 c 0.3333333,0 0.6249999,-0.04166666 0.875,-0.12499999 0.25,-0.08333334 0.4583333,-0.20833334 0.625,-0.37500001 l 0.5,-0.5 0.5,-0.50000002 c 0.1666666,-0.1666666 0.3333333,-0.25 0.5,-0.25 0.1666666,0 0.2916666,0.125 0.375,0.375 0.083333,0.25000002 0.125,0.54166669 0.125,0.87500002 v 1 0.99999998 c 0,0.3333334 -0.041667,0.625 -0.125,0.875 -0.083333,0.25 -0.2083334,0.4583334 -0.375,0.625 l -0.5,0.5 -0.5,0.5 -0.5,0.5 -0.5,0.5 -0.5,0.5 c -0.1666667,0.1666667 -0.3750001,0.2916667 -0.625,0.375 -0.25,0.083333 -0.5000001,0.083333 -0.75,0 -0.2500001,-0.083333 -0.4583334,-0.2083333 -0.625,-0.375 l -0.5,-0.5 -0.5,-0.5 -0.5,-0.5 -0.5,-0.5 -0.5,-0.5 c -0.1666668,-0.1666666 -0.2916668,-0.375 -0.3749998,-0.625 -0.08333,-0.25 -0.125,-0.5416666 -0.125,-0.875 v -0.99999998 -1 c 0,-0.33333333 0.04167,-0.625 0.125,-0.87500002 0.08333,-0.25 0.208333,-0.375 0.3749998,-0.375 z" transform="translate(12.471925,3.8658366)"/></g></svg>