<svg xmlns="http://www.w3.org/2000/svg" xmlns:svg="http://www.w3.org/2000/svg" id="svg1370" width="10" height="10" version="1.1" viewBox="0 0 10 10"><metadata id="metadata1376"/><g id="g5329" transform="translate(-1,-1)"><path style="fill:#fff;fill-opacity:1" id="path5323" d="M 3.5,1 C 3.1666667,1 2.875,1.0416667 2.625,1.125 2.375,1.2083333 2.1666667,1.3333333 2,1.5 L 1.5,2 C 1.3333333,2.1666667 1.2083333,2.375 1.125,2.625 1.0416667,2.875 1,3.1666667 1,3.5 v 1 1 1 1 1 C 1,8.8333333 1.0416667,9.125 1.125,9.375 1.2083333,9.625 1.3333333,9.8333333 1.5,10 L 2,10.5 c 0.1666667,0.166667 0.375,0.291667 0.625,0.375 C 2.875,10.958333 3.1666667,11 3.5,11 h 1 1 1 1 1 C 8.8333333,11 9.125,10.958333 9.375,10.875 9.625,10.791667 9.8333333,10.666667 10,10.5 L 10.5,10 C 10.666667,9.8333333 10.791667,9.625 10.875,9.375 10.958333,9.125 11,8.8333333 11,8.5 v -1 -1 -1 -1 -1 C 11,3.1666667 10.958333,2.875 10.875,2.625 10.791667,2.375 10.666667,2.1666667 10.5,2 L 10,1.5 C 9.8333333,1.3333333 9.625,1.2083333 9.375,1.125 9.125,1.0416667 8.8333333,1 8.5,1 h -1 -1 -1 -1 z m 1,1 h 1 1 1 C 7.8333333,2 8.125,2.0416667 8.375,2.125 8.625,2.2083333 8.8333333,2.3333333 9,2.5 L 9.5,3 C 9.6666667,3.1666667 9.7916667,3.375 9.875,3.625 9.9583333,3.875 10,4.1666667 10,4.5 v 1 1 1 C 10,7.8333333 9.9583333,8.125 9.875,8.375 9.7916667,8.625 9.6666667,8.8333333 9.5,9 L 9,9.5 C 8.8333333,9.6666667 8.625,9.7916667 8.375,9.875 8.125,9.9583333 7.8333333,10 7.5,10 h -1 -1 -1 C 4.1666667,10 3.875,9.9583333 3.625,9.875 3.375,9.7916667 3.1666667,9.6666667 3,9.5 L 2.5,9 C 2.3333333,8.8333333 2.2083333,8.625 2.125,8.375 2.0416667,8.125 2,7.8333333 2,7.5 v -1 -1 -1 C 2,4.1666667 2.0416667,3.875 2.125,3.625 2.2083333,3.375 2.3333333,3.1666667 2.5,3 L 3,2.5 C 3.1666667,2.3333333 3.375,2.2083333 3.625,2.125 3.875,2.0416667 4.1666667,2 4.5,2 Z M 6,4.0625 C 5.875,4.0625 5.75,4.0833333 5.625,4.125 5.375,4.2083333 5.1666667,4.3333333 5,4.5 L 4.5,5 C 4.3333333,5.1666667 4.2083333,5.375 4.125,5.625 c -0.083333,0.25 -0.083333,0.5 0,0.75 C 4.2083333,6.625 4.3333333,6.8333333 4.5,7 L 5,7.5 c 0.1666667,0.1666667 0.375,0.2916667 0.625,0.375 0.25,0.083333 0.5,0.083333 0.75,0 C 6.625,7.7916667 6.8333333,7.6666667 7,7.5 L 7.5,7 C 7.6666667,6.8333333 7.7916667,6.625 7.875,6.375 c 0.083333,-0.25 0.083333,-0.5 0,-0.75 C 7.7916667,5.375 7.6666667,5.1666667 7.5,5 L 7,4.5 C 6.8333333,4.3333333 6.625,4.2083333 6.375,4.125 6.25,4.0833333 6.125,4.0625 6,4.0625 Z"/></g></svg>