<svg xmlns="http://www.w3.org/2000/svg" xmlns:svg="http://www.w3.org/2000/svg" id="svg2" width="11.938" height="12" version="1.1" viewBox="0 0 11.938 12"><metadata id="metadata8"/><g id="g18" transform="translate(-1.000926,-0.99913925)"><path style="fill:#fff;fill-opacity:1" id="path14" d="m -14.710938,-0.83984375 c -0.333333,0 -0.625,0.0416667 -0.875,0.125 -0.25,0.0833333 -0.458333,0.20833333 -0.625,0.375 l -0.5,0.5 c -0.166666,0.16666667 -0.291666,0.375 -0.375,0.625 -0.08333,0.24999995 -0.125,0.54166665 -0.125,0.87499995 v 1 1 1 1 1 1 1 c 0,0.3333334 0.04167,0.625 0.125,0.875 0.08333,0.25 0.208334,0.4583334 0.375,0.6249998 l 0.5,0.5 c 0.166667,0.166667 0.375,0.291667 0.625,0.375 0.25,0.08333 0.541667,0.125 0.875,0.125 h 1 1 1 1 1.0000005 1 c 0.3333333,0 0.625,-0.04167 0.875,-0.125 0.25,-0.08333 0.4583333,-0.208333 0.625,-0.375 l 0.5,-0.5 c 0.1666667,-0.1666664 0.25,-0.3333331 0.25,-0.4999998 0,-0.1666666 -0.125,-0.2916666 -0.375,-0.375 -0.25,-0.083333 -0.5416667,-0.125 -0.875,-0.125 h -1 -1 -1.0000005 -1 -1 -1 c -0.333333,0 -0.625,-0.041667 -0.875,-0.125 -0.249999,-0.083333 -0.416666,-0.25 -0.5,-0.5 -0.08333,-0.2499999 -0.125,-0.5416666 -0.125,-0.875 v -1 -1 -1 -1 -1 c 0,-0.3333333 0.04167,-0.625 0.125,-0.875 0.08333,-0.2499999 0.25,-0.4166666 0.5,-0.5 0.25,-0.083333 0.541667,-0.125 0.875,-0.125 h 1 1 1 1.0000005 1 1 c 0.3333333,0 0.625,-0.041667 0.875,-0.125 0.25,-0.0833333 0.375,-0.20833328 0.375,-0.37499995 0,-0.16666667 -0.083333,-0.33333333 -0.25,-0.5 l -0.5,-0.5 c -0.1666667,-0.16666667 -0.375,-0.29166667 -0.625,-0.375 -0.25,-0.0833333 -0.5416667,-0.125 -0.875,-0.125 h -1 -1.0000005 -1 -1 -1 z m 7.0000005,3.24999995 c -0.1666667,0 -0.2916667,0.125 -0.375,0.375 l -0.25,0.75 c -0.083333,0.25 -0.25,0.4166667 -0.5,0.5 -0.25,0.083333 -0.5416667,0.125 -0.875,0.125 h -1.0000005 -1 c -0.333333,0 -0.625,0.041667 -0.875,0.125 -0.249999,0.083333 -0.416666,0.25 -0.5,0.5 -0.08333,0.25 -0.08333,0.5 0,0.75 0.08333,0.25 0.25,0.4166667 0.5,0.5 0.25,0.083333 0.541667,0.125 0.875,0.125 h 1 1.0000005 c 0.3333333,0 0.625,0.041667 0.875,0.125 0.25,0.083333 0.4166667,0.25 0.5,0.5 l 0.25,0.75 c 0.083333,0.25 0.2083333,0.375 0.375,0.375 0.1666667,0 0.3333333,-0.083333 0.5,-0.25 l 0.5,-0.5 0.5,-0.5 0.5,-0.5 c 0.1666667,-0.1666666 0.2916667,-0.375 0.375,-0.625 0.083333,-0.25 0.083333,-0.5 0,-0.75 -0.083333,-0.25 -0.2083333,-0.4583333 -0.375,-0.625 l -0.5,-0.5 -0.5,-0.5 -0.5,-0.5 c -0.1666667,-0.1666666 -0.3333333,-0.25 -0.5,-0.25 z" transform="translate(18.211864,1.838983)"/></g></svg>