<svg xmlns="http://www.w3.org/2000/svg" xmlns:svg="http://www.w3.org/2000/svg" id="svg2" width="12" height="11" version="1.1" viewBox="0 0 12 11"><metadata id="metadata8"/><g id="g32" transform="translate(-1,-2)"><path style="fill:#fff;fill-opacity:1" id="path14" d="M 1.125,2.625 Q 1.25,2.25 1.625,2.125 2,2 2.5,2 q 0.5,0 1,0 0.5,0 1,0 0.5,0 1,0 0.5,0 1,0 0.5,0 1,0 0.5,0 1,0 0.5,0 1,0 0.5,0 1,0 0.5,0 1,0 0.5,0 0.875,0.125 0.375,0.125 0.5,0.5 Q 13,3 13,3.5 13,4 12.875,4.375 12.75,4.75 12.375,4.875 12,5 11.5,5 11,5 10.5,5 10,5 9.5,5 9,5 8.5,5 8,5 7.5,5 7,5 6.5,5 6,5 5.5,5 5,5 4.5,5 4,5 3.5,5 3,5 2.5,5 2,5 1.625,4.875 1.25,4.75 1.125,4.375 1,4 1,3.5 1,3 1.125,2.625 M 5.5,4 Q 6,4 6.375,3.875 6.75,3.75 6.75,3.5 6.75,3.25 6.375,3.125 6,3 5.5,3 5,3 4.5,3 4,3 3.5,3 3,3 2.625,3.125 2.25,3.25 2.25,3.5 2.25,3.75 2.625,3.875 3,4 3.5,4 4,4 4.5,4 5,4 5.5,4 m 4.75,-0.5 q 0,0.25 0.25,0.25 0.25,0 0.25,-0.25 0,-0.25 -0.25,-0.25 -0.25,0 -0.25,0.25"/><path style="fill:#fff;fill-opacity:1" id="path20" d="M 1.125,6.625 Q 1.25,6.25 1.625,6.125 2,6 2.5,6 q 0.5,0 1,0 0.5,0 1,0 0.5,0 1,0 0.5,0 1,0 0.5,0 1,0 0.5,0 1,0 0.5,0 1,0 0.5,0 1,0 0.5,0 1,0 0.5,0 0.875,0.125 0.375,0.125 0.5,0.5 Q 13,7 13,7.5 13,8 12.875,8.375 12.75,8.75 12.375,8.875 12,9 11.5,9 11,9 10.5,9 10,9 9.5,9 9,9 8.5,9 8,9 7.5,9 7,9 6.5,9 6,9 5.5,9 5,9 4.5,9 4,9 3.5,9 3,9 2.5,9 2,9 1.625,8.875 1.25,8.75 1.125,8.375 1,8 1,7.5 1,7 1.125,6.625 M 5.5,8 Q 6,8 6.375,7.875 6.75,7.75 6.75,7.5 6.75,7.25 6.375,7.125 6,7 5.5,7 5,7 4.5,7 4,7 3.5,7 3,7 2.625,7.125 2.25,7.25 2.25,7.5 2.25,7.75 2.625,7.875 3,8 3.5,8 4,8 4.5,8 5,8 5.5,8 m 4.75,-0.5 q 0,0.25 0.25,0.25 0.25,0 0.25,-0.25 0,-0.25 -0.25,-0.25 -0.25,0 -0.25,0.25"/><path style="fill:#fff;fill-opacity:1" id="path26" d="M 1.125,10.625 Q 1.25,10.25 1.625,10.125 2,10 2.5,10 q 0.5,0 1,0 0.5,0 1,0 0.5,0 1,0 0.5,0 1,0 0.5,0 1,0 0.5,0 1,0 0.5,0 1,0 0.5,0 1,0 0.5,0 1,0 0.5,0 0.875,0.125 0.375,0.125 0.5,0.5 Q 13,11 13,11.5 q 0,0.5 -0.125,0.875 -0.125,0.375 -0.5,0.5 Q 12,13 11.5,13 11,13 10.5,13 10,13 9.5,13 9,13 8.5,13 8,13 7.5,13 7,13 6.5,13 6,13 5.5,13 5,13 4.5,13 4,13 3.5,13 3,13 2.5,13 2,13 1.625,12.875 1.25,12.75 1.125,12.375 1,12 1,11.5 1,11 1.125,10.625 M 5.5,12 Q 6,12 6.375,11.875 6.75,11.75 6.75,11.5 6.75,11.25 6.375,11.125 6,11 5.5,11 5,11 4.5,11 4,11 3.5,11 3,11 2.625,11.125 2.25,11.25 2.25,11.5 q 0,0.25 0.375,0.375 Q 3,12 3.5,12 q 0.5,0 1,0 0.5,0 1,0 m 4.75,-0.5 q 0,0.25 0.25,0.25 0.25,0 0.25,-0.25 0,-0.25 -0.25,-0.25 -0.25,0 -0.25,0.25"/></g></svg>