<svg xmlns="http://www.w3.org/2000/svg" xmlns:svg="http://www.w3.org/2000/svg" id="svg2" width="11.875" height="11.875" version="1.1" viewBox="0 0 11.875 11.875"><metadata id="metadata8"/><g id="g16" transform="translate(-2.0625,-2.0625)"><path style="fill:#fff;fill-opacity:1" id="path14" d="M 12,2.5 Q 12.25,2.25 12.625,2.125 13,2 13.375,2.125 13.75,2.25 13.875,2.625 14,3 13.875,3.375 13.75,3.75 13.5,4 13.25,4.25 13,4.5 12.75,4.75 12.5,5 12.25,5.25 12,5.5 11.75,5.75 11.5,6 11.25,6.25 11,6.5 10.75,6.75 10.5,7 10.25,7.25 10,7.5 9.75,7.75 9.5,8 9.25,8.25 9,8.5 8.75,8.75 8.5,9 8.25,9.25 8,9.5 7.75,9.75 7.5,10 7.25,10.25 7,10.5 6.75,10.75 6.5,11 6.25,11.25 6,11.5 5.75,11.75 5.5,12 5.25,12.25 5,12.5 4.75,12.75 4.5,13 4.25,13.25 4,13.5 3.75,13.75 3.375,13.875 3,14 2.625,13.875 2.25,13.75 2.125,13.375 2,13 2.125,12.625 2.25,12.25 2.5,12 2.75,11.75 3,11.5 3.25,11.25 3.5,11 3.75,10.75 4,10.5 4.25,10.25 4.5,10 4.75,9.75 5,9.5 5.25,9.25 5.5,9 5.75,8.75 6,8.5 6.25,8.25 6.5,8 6.75,7.75 7,7.5 7.25,7.25 7.5,7 7.75,6.75 8,6.5 8.25,6.25 8.5,6 8.75,5.75 9,5.5 9.25,5.25 9.5,5 9.75,4.75 10,4.5 10.25,4.25 10.5,4 10.75,3.75 11,3.5 11.25,3.25 11.5,3 11.75,2.75 12,2.5"/></g></svg>