<svg xmlns="http://www.w3.org/2000/svg" xmlns:svg="http://www.w3.org/2000/svg" id="svg2" width="12" height="12" version="1.1" viewBox="0 0 12 12"><metadata id="metadata8"/><g id="g18" transform="translate(-0.999272,-0.9997352)"><path style="fill:#fff;fill-opacity:1" id="path14" d="m 28.058594,-2.796875 c -0.333334,0 -0.625,0.041667 -0.875,0.125 -0.25,0.083333 -0.458334,0.2083333 -0.625,0.375 l -0.5,0.5 c -0.166667,0.1666667 -0.291667,0.375 -0.375,0.625 -0.08333,0.25 -0.125,0.54166667 -0.125,0.875 v 1 1 1 1 1 1 1 c 0,0.3333333 0.04167,0.625 0.125,0.875 0.08333,0.25 0.208333,0.4583333 0.375,0.625 l 0.5,0.5 c 0.166666,0.1666667 0.375,0.2916667 0.625,0.375 0.25,0.083333 0.541666,0.125 0.875,0.125 h 1 1 1 1 1 1 1 c 0.333333,0 0.625,-0.041667 0.875,-0.125 0.25,-0.083333 0.458333,-0.2083333 0.625,-0.375 l 0.5,-0.5 c 0.166666,-0.1666667 0.291666,-0.375 0.375,-0.625 0.08333,-0.25 0.125,-0.5416667 0.125,-0.875 0,-0.3333333 -0.04167,-0.625 -0.125,-0.875 -0.08333,-0.25 -0.208334,-0.4583333 -0.375,-0.625 l -0.5,-0.5 c -0.166667,-0.1666667 -0.333334,-0.25 -0.5,-0.25 -0.166667,0 -0.291667,0.125 -0.375,0.375 -0.08333,0.25 -0.125,0.5416667 -0.125,0.875 0,0.3333333 -0.04167,0.625 -0.125,0.875 -0.08333,0.25 -0.25,0.4166667 -0.5,0.5 -0.25,0.083333 -0.541667,0.125 -0.875,0.125 h -1 -1 -1 -1 -1 c -0.333334,0 -0.625,-0.041667 -0.875,-0.125 -0.25,-0.083333 -0.416667,-0.25 -0.5,-0.5 -0.08333,-0.25 -0.125,-0.5416667 -0.125,-0.875 v -1 -1 -1 -1 -1 c 0,-0.33333333 0.04167,-0.625 0.125,-0.875 0.08333,-0.25 0.25,-0.41666667 0.5,-0.5 0.25,-0.0833333 0.541666,-0.125 0.875,-0.125 0.333333,0 0.625,-0.0416667 0.875,-0.125 0.25,-0.0833333 0.375,-0.2083333 0.375,-0.375 0,-0.1666667 -0.08333,-0.3333333 -0.25,-0.5 l -0.5,-0.5 c -0.166667,-0.1666667 -0.375,-0.2916667 -0.625,-0.375 -0.25,-0.083333 -0.541667,-0.125 -0.875,-0.125 z m 5,0 c -0.333334,0 -0.625,0.041667 -0.875,0.125 -0.25,0.083333 -0.375,0.2083333 -0.375,0.375 0,0.1666667 0.08333,0.3333333 0.25,0.5 l 0.5,0.5 0.5,0.5 c 0.166666,0.16666667 0.25,0.33333333 0.25,0.5 0,0.16666667 -0.08333,0.33333333 -0.25,0.5 l -0.5,0.5 -0.5,0.5 -0.5,0.5 -0.5,0.5 -0.5,0.5 -0.5,0.5 c -0.166667,0.1666667 -0.291667,0.375 -0.375,0.625 -0.08333,0.25 -0.08333,0.5 0,0.75 0.08333,0.25 0.25,0.4166667 0.5,0.5 0.25,0.083333 0.5,0.083333 0.75,0 0.25,-0.083333 0.458333,-0.2083333 0.625,-0.375 l 0.5,-0.5 0.5,-0.5 0.5,-0.5 0.5,-0.5 0.5,-0.5 0.5,-0.5 c 0.166666,-0.1666667 0.333333,-0.25 0.5,-0.25 0.166666,0 0.333333,0.083333 0.5,0.25 l 0.5,0.5 0.5,0.5 c 0.166666,0.1666667 0.333333,0.25 0.5,0.25 0.166666,0 0.291666,-0.125 0.375,-0.375 0.08333,-0.25 0.125,-0.5416667 0.125,-0.875 v -1 -1 -1 c 0,-0.3333333 -0.04167,-0.625 -0.125,-0.875 -0.08333,-0.25 -0.25,-0.4166667 -0.5,-0.5 -0.25,-0.083333 -0.541667,-0.125 -0.875,-0.125 h -1 -1 z" transform="translate(-24.559322,3.7966102)"/></g></svg>