<svg xmlns="http://www.w3.org/2000/svg" xmlns:svg="http://www.w3.org/2000/svg" id="svg2" width="8.75" height="8.75" version="1.1" viewBox="0 0 8.75 8.75"><metadata id="metadata8"/><g id="g18" transform="translate(-1.25,-2)"><path style="fill:#fff;fill-opacity:1" id="path14" d="M 1.25,2.5 Q 1.25,2.25 1.625,2.125 2,2 2.5,2 3,2 3.5,2 4,2 4.5,2 5,2 5.5,2 6,2 6.5,2 7,2 7.375,2.125 7.75,2.25 7.75,2.5 7.75,2.75 7.5,3 7.25,3.25 7.125,3.625 7,4 7.125,4.375 7.25,4.75 7.625,4.875 8,5 8.375,4.875 8.75,4.75 9,4.5 9.25,4.25 9.5,4.25 9.75,4.25 9.875,4.625 10,5 10,5.5 q 0,0.5 0,1 0,0.5 0,1 0,0.5 0,1 0,0.5 0,1 Q 10,10 9.875,10.375 9.75,10.75 9.5,10.75 9.25,10.75 9,10.5 8.75,10.25 8.375,10.125 8,10 7.5,10 7,10 6.5,10 6,10 5.5,10 5,10 4.625,9.875 4.25,9.75 4,9.5 3.75,9.25 3.5,9 3.25,8.75 3,8.5 2.75,8.25 2.5,8 2.25,7.75 2.125,7.375 2,7 2,6.5 2,6 2,5.5 2,5 2,4.5 2,4 1.875,3.625 1.75,3.25 1.5,3 1.25,2.75 1.25,2.5 M 7.5,9 Q 8,9 8.375,8.875 8.75,8.75 8.875,8.375 9,8 9,7.5 9,7 8.875,6.625 8.75,6.25 8.375,6.125 8,6 7.625,5.875 7.25,5.75 7,5.5 6.75,5.25 6.5,5 6.25,4.75 6.125,4.375 6,4 5.875,3.625 5.75,3.25 5.375,3.125 5,3 4.5,3 4,3 3.625,3.125 3.25,3.25 3.125,3.625 3,4 3,4.5 3,5 3,5.5 3,6 3,6.5 3,7 3.125,7.375 3.25,7.75 3.5,8 3.75,8.25 4,8.5 4.25,8.75 4.625,8.875 5,9 5.5,9 6,9 6.5,9 7,9 7.5,9"/></g></svg>