<svg xmlns="http://www.w3.org/2000/svg" xmlns:svg="http://www.w3.org/2000/svg" id="svg22" width="12" height="12.938" version="1.1" viewBox="0 0 12 12.938"><metadata id="metadata28"/><g id="g844" transform="translate(-2,-2.0625)"><path style="fill:#fff;fill-opacity:1" id="path842" d="M 2.125,2.625 Q 2.25,2.25 2.625,2.125 3,2 3.375,2.125 3.75,2.25 4,2.5 4.25,2.75 4.5,3 4.75,3.25 5,3.5 5.25,3.75 5.625,3.875 6,4 6.5,4 7,4 7.5,4 8,4 8.5,4 9,4 9.5,4 10,4 10.375,3.875 10.75,3.75 11,3.5 11.25,3.25 11.5,3 11.75,2.75 12,2.5 12.25,2.25 12.625,2.125 13,2 13.375,2.125 13.75,2.25 13.875,2.625 14,3 14,3.5 q 0,0.5 0,1 0,0.5 0,1 0,0.5 0,1 0,0.5 0,1 0,0.5 0,1 0,0.5 0,1 0,0.5 -0.125,0.875 Q 13.75,10.75 13.5,11 13.25,11.25 13,11.5 12.75,11.75 12.5,12 12.25,12.25 12,12.5 11.75,12.75 11.5,13 11.25,13.25 11,13.5 10.75,13.75 10.5,14 10.25,14.25 10,14.5 9.75,14.75 9.375,14.875 9,15 8.5,15 8,15 7.5,15 7,15 6.625,14.875 6.25,14.75 6,14.5 5.75,14.25 5.5,14 5.25,13.75 5,13.5 4.75,13.25 4.5,13 4.25,12.75 4,12.5 3.75,12.25 3.5,12 3.25,11.75 3,11.5 2.75,11.25 2.5,11 2.25,10.75 2.125,10.375 2,10 2,9.5 2,9 2,8.5 2,8 2,7.5 2,7 2,6.5 2,6 2,5.5 2,5 2,4.5 2,4 2,3.5 2,3 2.125,2.625"/></g></svg>