<svg xmlns="http://www.w3.org/2000/svg" xmlns:svg="http://www.w3.org/2000/svg" id="svg2" width="12" height="14" version="1.1" viewBox="0 0 12 14"><metadata id="metadata8"/><g id="g26" transform="translate(-1.999669,-1.0003641)"><path style="fill:#fff;fill-opacity:1" id="path14" d="m 34.753906,2.2207031 c -0.333333,0 -0.625,0.041667 -0.875,0.125 -0.25,0.083333 -0.458333,0.2083334 -0.625,0.375 -0.166666,0.1666667 -0.375,0.2916667 -0.625,0.375 -0.25,0.083333 -0.541666,0.125 -0.875,0.125 -0.333333,0 -0.625,0.041667 -0.875,0.125 -0.25,0.083333 -0.458333,0.2083334 -0.625,0.375 l -0.5,0.5 c -0.166666,0.1666667 -0.291666,0.375 -0.375,0.625 -0.08333,0.25 -0.125,0.5416667 -0.125,0.875 v 1 1 1 1 0.9999999 1 1 1 c 0,0.333333 0.04167,0.625 0.125,0.875 0.08333,0.25 0.208334,0.458333 0.375,0.625 l 0.5,0.5 c 0.166667,0.166667 0.375,0.291667 0.625,0.375 0.25,0.08333 0.541667,0.125 0.875,0.125 h 1 1 1 1 1 1 1 c 0.333334,0 0.625,-0.04167 0.875,-0.125 0.25,-0.08333 0.458334,-0.208333 0.625,-0.375 l 0.5,-0.5 c 0.166667,-0.166667 0.291667,-0.375 0.375,-0.625 0.08333,-0.25 0.125,-0.541667 0.125,-0.875 v -1 -1 -1 -0.9999999 -1 -1 -1 -1 c 0,-0.3333333 -0.04167,-0.625 -0.125,-0.875 -0.08333,-0.25 -0.208333,-0.4583333 -0.375,-0.625 l -0.5,-0.5 c -0.166666,-0.1666666 -0.375,-0.2916666 -0.625,-0.375 -0.25,-0.083333 -0.541666,-0.125 -0.875,-0.125 -0.333333,0 -0.625,-0.041667 -0.875,-0.125 -0.25,-0.083333 -0.458333,-0.2083333 -0.625,-0.375 -0.166666,-0.1666666 -0.375,-0.2916666 -0.625,-0.375 -0.25,-0.083333 -0.541666,-0.125 -0.875,-0.125 z m 0.5,1.0625 c 0.125,0 0.25,0.020833 0.375,0.0625 0.25,0.083333 0.375,0.2083334 0.375,0.375 0,0.1666667 -0.125,0.2916667 -0.375,0.375 -0.25,0.083333 -0.5,0.083333 -0.75,0 -0.25,-0.083333 -0.375,-0.2083333 -0.375,-0.375 0,-0.1666666 0.125,-0.2916666 0.375,-0.375 0.125,-0.041667 0.25,-0.0625 0.375,-0.0625 z m -3,2 c 0.125,0 0.25,0.020833 0.375,0.0625 0.25,0.083333 0.458334,0.2083334 0.625,0.375 0.166667,0.1666667 0.375,0.2916667 0.625,0.375 0.25,0.083333 0.541667,0.125 0.875,0.125 h 1 c 0.333334,0 0.625,-0.041667 0.875,-0.125 0.25,-0.083333 0.458334,-0.2083333 0.625,-0.375 0.166667,-0.1666666 0.375,-0.2916666 0.625,-0.375 0.25,-0.083333 0.5,-0.083333 0.75,0 0.25,0.083333 0.416667,0.25 0.5,0.5 0.08333,0.25 0.125,0.5416667 0.125,0.875 v 1 1 1 0.9999999 1 1 c 0,0.333333 -0.04167,0.625 -0.125,0.875 -0.08333,0.25 -0.25,0.416667 -0.5,0.5 -0.25,0.08333 -0.541666,0.125 -0.875,0.125 h -1 -1 -1 -1 -1 c -0.333333,0 -0.625,-0.04167 -0.875,-0.125 -0.25,-0.08333 -0.416666,-0.25 -0.5,-0.5 -0.08333,-0.25 -0.125,-0.541667 -0.125,-0.875 v -1 -1 -0.9999999 -1 -1 -1 c 0,-0.3333333 0.04167,-0.625 0.125,-0.875 0.08333,-0.25 0.25,-0.4166666 0.5,-0.5 0.125,-0.041667 0.25,-0.0625 0.375,-0.0625 z m 1.5,2.9375 c -0.333333,0 -0.625,0.041667 -0.875,0.125 -0.25,0.083333 -0.375,0.2083334 -0.375,0.375 0,0.1666667 0.125,0.2916667 0.375,0.375 0.25,0.083333 0.541667,0.125 0.875,0.125 h 1 1 1 c 0.333334,0 0.625,-0.041667 0.875,-0.125 0.25,-0.083333 0.375,-0.2083333 0.375,-0.375 0,-0.1666666 -0.125,-0.2916666 -0.375,-0.375 -0.25,-0.083333 -0.541666,-0.125 -0.875,-0.125 h -1 -1 z m 0,1.9999999 c -0.333333,0 -0.625,0.04167 -0.875,0.125 -0.25,0.08333 -0.375,0.208333 -0.375,0.375 0,0.166667 0.125,0.291667 0.375,0.375 0.25,0.08333 0.541667,0.125 0.875,0.125 h 1 1 1 c 0.333334,0 0.625,-0.04167 0.875,-0.125 0.25,-0.08333 0.375,-0.208333 0.375,-0.375 0,-0.166667 -0.125,-0.291667 -0.375,-0.375 -0.25,-0.08333 -0.541666,-0.125 -0.875,-0.125 h -1 -1 z m 0,2 c -0.333333,0 -0.625,0.04167 -0.875,0.125 -0.25,0.08333 -0.375,0.208333 -0.375,0.375 0,0.166667 0.125,0.291667 0.375,0.375 0.25,0.08333 0.541667,0.125 0.875,0.125 h 1 1 1 c 0.333334,0 0.625,-0.04167 0.875,-0.125 0.25,-0.08333 0.375,-0.208333 0.375,-0.375 0,-0.166667 -0.125,-0.291667 -0.375,-0.375 -0.25,-0.08333 -0.541666,-0.125 -0.875,-0.125 h -1 -1 z" transform="translate(-27.254237,-1.220339)"/></g></svg>