<svg xmlns="http://www.w3.org/2000/svg" xmlns:svg="http://www.w3.org/2000/svg" id="svg2" width="7.875" height="7.938" version="1.1" viewBox="0 0 7.875 7.938"><metadata id="metadata8"/><g id="g16" transform="translate(-1.0625,-1.0625)"><path style="fill:#fff;fill-opacity:1" id="path14" d="M 4,1.5 Q 4.25,1.25 4.625,1.125 5,1 5.375,1.125 5.75,1.25 6,1.5 6.25,1.75 6.5,2 6.75,2.25 6.875,2.625 7,3 6.875,3.375 6.75,3.75 6.5,4 6.25,4.25 6.25,4.5 6.25,4.75 6.5,5 6.75,5.25 7,5.5 7.25,5.75 7.5,6 7.75,6.25 8,6.5 8.25,6.75 8.5,7 8.75,7.25 8.875,7.625 9,8 8.875,8.375 8.75,8.75 8.375,8.875 8,9 7.5,9 7,9 6.5,9 6,9 5.5,9 5,9 4.5,9 4,9 3.5,9 3,9 2.5,9 2,9 1.625,8.875 1.25,8.75 1.125,8.375 1,8 1.125,7.625 1.25,7.25 1.5,7 1.75,6.75 2,6.5 2.25,6.25 2.5,6 2.75,5.75 3,5.5 3.25,5.25 3.5,5 3.75,4.75 3.75,4.5 3.75,4.25 3.5,4 3.25,3.75 3.125,3.375 3,3 3.125,2.625 3.25,2.25 3.5,2 3.75,1.75 4,1.5"/></g></svg>