<svg xmlns="http://www.w3.org/2000/svg" xmlns:svg="http://www.w3.org/2000/svg" id="svg2" width="14" height="14" version="1.1" viewBox="0 0 14 14"><metadata id="metadata8"/><g id="g18" transform="translate(-1,-1)"><path style="fill:#fff;fill-opacity:1" id="path14" d="M 3.5,1 C 3.1666667,1 2.875,1.0416667 2.625,1.125 2.375,1.2083333 2.1666667,1.3333333 2,1.5 L 1.5,2 C 1.3333333,2.1666667 1.2083333,2.375 1.125,2.625 1.0416667,2.875 1,3.1666667 1,3.5 v 1 1 1 1 c 0,0.3333333 0.041667,0.625 0.125,0.875 0.083333,0.25 0.25,0.4166667 0.5,0.5 0.25,0.083333 0.5,0.083333 0.75,0 0.25,-0.083333 0.4166667,-0.25 0.5,-0.5 C 2.9583333,8.125 3,7.8333333 3,7.5 v -1 -1 -1 C 3,4.1666667 3.0416667,3.875 3.125,3.625 3.2083333,3.375 3.375,3.2083333 3.625,3.125 3.875,3.0416667 4.1666667,3 4.5,3 h 1 1 1 1 1 c 0.3333333,0 0.625,0.041667 0.875,0.125 0.25,0.083333 0.375,0.2083333 0.375,0.375 0,0.1666667 -0.08333,0.3333333 -0.25,0.5 -0.166667,0.1666667 -0.25,0.3333333 -0.25,0.5 0,0.1666667 0.125,0.2916667 0.375,0.375 C 10.875,4.9583333 11.166667,5 11.5,5 h 1 c 0.333333,0 0.625,-0.041667 0.875,-0.125 0.25,-0.083333 0.416667,-0.25 0.5,-0.5 C 13.958333,4.125 14,3.8333333 14,3.5 v -1 C 14,2.1666667 13.958333,1.875 13.875,1.625 13.791667,1.375 13.666667,1.25 13.5,1.25 13.333333,1.25 13.166667,1.3333333 13,1.5 12.833333,1.6666667 12.666667,1.75 12.5,1.75 12.333333,1.75 12.166667,1.6666667 12,1.5 11.833333,1.3333333 11.625,1.2083333 11.375,1.125 11.125,1.0416667 10.833333,1 10.5,1 h -1 -1 -1 -1 -1 -1 z M 14,7.0625 c -0.125,0 -0.25,0.020833 -0.375,0.0625 -0.25,0.083333 -0.416667,0.25 -0.5,0.5 C 13.041667,7.875 13,8.1666667 13,8.5 v 1 1 1 c 0,0.333333 -0.04167,0.625 -0.125,0.875 -0.08333,0.25 -0.25,0.416667 -0.5,0.5 C 12.125,12.958333 11.833333,13 11.5,13 h -1 -1 -1 -1 -1 C 6.1666667,13 5.875,12.958333 5.625,12.875 5.375,12.791667 5.25,12.666667 5.25,12.5 5.25,12.333333 5.3333333,12.166667 5.5,12 5.6666667,11.833333 5.75,11.666667 5.75,11.5 5.75,11.333333 5.625,11.208333 5.375,11.125 5.125,11.041667 4.8333333,11 4.5,11 h -1 c -0.3333333,0 -0.625,0.04167 -0.875,0.125 -0.25,0.08333 -0.4166667,0.25 -0.5,0.5 C 2.0416667,11.875 2,12.166667 2,12.5 v 1 c 0,0.333333 0.041667,0.625 0.125,0.875 0.083333,0.25 0.2083333,0.375 0.375,0.375 0.1666667,0 0.3333333,-0.08333 0.5,-0.25 0.1666667,-0.166667 0.3333333,-0.25 0.5,-0.25 0.1666667,0 0.3333333,0.08333 0.5,0.25 0.1666667,0.166667 0.375,0.291667 0.625,0.375 C 4.875,14.958333 5.1666667,15 5.5,15 h 1 1 1 1 1 1 1 c 0.333333,0 0.625,-0.04167 0.875,-0.125 C 13.625,14.79167 13.833333,14.666667 14,14.5 L 14.5,14 c 0.166667,-0.166667 0.291667,-0.375 0.375,-0.625 C 14.958333,13.125 15,12.833333 15,12.5 v -1 -1 -1 -1 C 15,8.1666667 14.95833,7.875 14.875,7.625 14.79167,7.375 14.625,7.2083333 14.375,7.125 14.25,7.0833333 14.125,7.0625 14,7.0625 Z"/></g></svg>