<svg xmlns="http://www.w3.org/2000/svg" xmlns:svg="http://www.w3.org/2000/svg" id="svg2" width="10" height="11" version="1.1" viewBox="0 0 10 11"><metadata id="metadata8"/><g id="g22" transform="translate(-2,-2)"><path style="fill:#fff;fill-opacity:1" id="path14" d="M 2.125,2.625 Q 2.25,2.25 2.625,2.125 3,2 3.5,2 4,2 4.5,2 5,2 5.5,2 6,2 6.5,2 7,2 7.5,2 8,2 8.5,2 9,2 9.5,2 10,2 10.375,2.125 10.75,2.25 11,2.5 11.25,2.75 11.5,3 11.75,3.25 11.875,3.625 12,4 12,4.5 q 0,0.5 0,1 0,0.5 0,1 0,0.5 0,1 0,0.5 0,1 0,0.5 0,1 0,0.5 0,1 0,0.5 0,1 0,0.5 -0.125,0.875 -0.125,0.375 -0.5,0.5 Q 11,13 10.5,13 10,13 9.5,13 9,13 8.5,13 8,13 7.5,13 7,13 6.5,13 6,13 5.5,13 5,13 4.5,13 4,13 3.5,13 3,13 2.625,12.875 2.25,12.75 2.125,12.375 2,12 2,11.5 2,11 2,10.5 2,10 2,9.5 2,9 2,8.5 2,8 2,7.5 2,7 2,6.5 2,6 2,5.5 2,5 2,4.5 2,4 2,3.5 2,3 2.125,2.625 M 7.5,12 Q 8,12 8.375,11.875 8.75,11.75 8.875,11.375 9,11 9,10.5 9,10 8.875,9.625 8.75,9.25 8.375,9.125 8,9 7.5,9 7,9 6.5,9 6,9 5.625,9.125 5.25,9.25 5.125,9.625 5,10 5,10.5 5,11 5.125,11.375 5.25,11.75 5.625,11.875 6,12 6.5,12 q 0.5,0 1,0 m 2.625,-0.625 q 0.125,0.375 0.375,0.375 0.25,0 0.375,-0.375 Q 11,11 11,10.5 11,10 11,9.5 11,9 11,8.5 11,8 11,7.5 11,7 11,6.5 11,6 11,5.5 11,5 11,4.5 11,4 10.875,3.625 10.75,3.25 10.375,3.125 10,3 9.625,3.125 9.25,3.25 9.125,3.625 9,4 9,4.5 9,5 8.875,5.375 8.75,5.75 8.375,5.875 8,6 7.5,6 7,6 6.5,6 6,6 5.625,5.875 5.25,5.75 5.125,5.375 5,5 5,4.5 5,4 4.875,3.625 4.75,3.25 4.375,3.125 4,3 3.625,3.125 3.25,3.25 3.125,3.625 3,4 3,4.5 3,5 3,5.5 3,6 3,6.5 3,7 3,7.5 3,8 3,8.5 3,9 3,9.5 3,10 3,10.5 3,11 3.125,11.375 3.25,11.75 3.5,11.75 3.75,11.75 3.875,11.375 4,11 4,10.5 4,10 4,9.5 4,9 4.125,8.625 4.25,8.25 4.625,8.125 5,8 5.5,8 6,8 6.5,8 7,8 7.5,8 8,8 8.5,8 9,8 9.375,8.125 9.75,8.25 9.875,8.625 10,9 10,9.5 q 0,0.5 0,1 0,0.5 0.125,0.875 m -3.5,-6.5 Q 7,5 7.375,4.875 7.75,4.75 7.875,4.375 8,4 7.875,3.625 7.75,3.25 7.375,3.125 7,3 6.625,3.125 6.25,3.25 6.125,3.625 6,4 6.125,4.375 q 0.125,0.375 0.5,0.5"/></g></svg>