<svg xmlns="http://www.w3.org/2000/svg" xmlns:svg="http://www.w3.org/2000/svg" id="svg2" width="10.75" height="13.75" version="1.1" viewBox="0 0 10.75 13.75"><metadata id="metadata8"/><g id="g833" transform="translate(-1.249603,-1.2502648)"><path style="fill:#fff;fill-opacity:1" id="path819" d="m 23.804688,1.046875 c -0.166667,0 -0.25,0.083333 -0.25,0.25 0,0.1666667 0.08333,0.25 0.25,0.25 0.166666,0 0.25,-0.083333 0.25,-0.25 0,-0.1666667 -0.08333,-0.25 -0.25,-0.25 z m 6,0.75 c -0.333334,0 -0.625,0.041667 -0.875,0.125 -0.25,0.083333 -0.375,0.2083333 -0.375,0.375 0,0.1666667 0.08333,0.3333333 0.25,0.5 0.166666,0.1666667 0.25,0.3333333 0.25,0.5 0,0.1666667 -0.08333,0.3333333 -0.25,0.5 l -0.5,0.5 -0.5,0.5 -0.5,0.5 -0.5,0.5 c -0.166667,0.1666667 -0.25,0.3333333 -0.25,0.5 0,0.1666667 0.125,0.2916667 0.375,0.375 0.25,0.083333 0.541666,0.125 0.875,0.125 h 1 1 1 1 1 c 0.333333,0 0.625,-0.041667 0.875,-0.125 0.25,-0.083333 0.375,-0.2083333 0.375,-0.375 0,-0.1666667 -0.08333,-0.3333333 -0.25,-0.5 l -0.5,-0.5 -0.5,-0.5 c -0.166667,-0.1666667 -0.291667,-0.375 -0.375,-0.625 -0.08333,-0.25 -0.125,-0.5416667 -0.125,-0.875 0,-0.3333333 -0.04167,-0.625 -0.125,-0.875 -0.08333,-0.25 -0.25,-0.4166667 -0.5,-0.5 -0.25,-0.083333 -0.541667,-0.125 -0.875,-0.125 z m -4,0.25 c -0.166667,0 -0.25,0.083333 -0.25,0.25 0,0.1666667 0.08333,0.3333333 0.25,0.5 0.166666,0.1666667 0.25,0.3333333 0.25,0.5 0,0.1666667 -0.08333,0.3333333 -0.25,0.5 -0.166667,0.1666667 -0.25,0.3333333 -0.25,0.5 0,0.1666667 0.08333,0.25 0.25,0.25 0.166666,0 0.333333,-0.083333 0.5,-0.25 l 0.5,-0.5 c 0.166666,-0.1666667 0.25,-0.3333333 0.25,-0.5 0,-0.1666667 -0.08333,-0.3333333 -0.25,-0.5 l -0.5,-0.5 c -0.166667,-0.1666667 -0.333334,-0.25 -0.5,-0.25 z m -2,1 c -0.166667,0 -0.25,0.083333 -0.25,0.25 0,0.1666667 0.08333,0.25 0.25,0.25 0.166666,0 0.25,-0.083333 0.25,-0.25 0,-0.1666667 -0.08333,-0.25 -0.25,-0.25 z m 0,2 c -0.166667,0 -0.25,0.083333 -0.25,0.25 0,0.1666667 0.08333,0.25 0.25,0.25 0.166666,0 0.25,-0.083333 0.25,-0.25 0,-0.1666667 -0.08333,-0.25 -0.25,-0.25 z m 4,2.75 c -0.333334,0 -0.625,0.041667 -0.875,0.125 -0.25,0.083333 -0.416667,0.25 -0.5,0.5 -0.08333,0.25 -0.125,0.5416667 -0.125,0.875 v 1 1 c 0,0.333333 0.04167,0.625 0.125,0.875 0.08333,0.25 0.25,0.416667 0.5,0.5 0.25,0.08333 0.541666,0.125 0.875,0.125 h 1 1 1 1 1 c 0.333333,0 0.625,-0.04167 0.875,-0.125 0.25,-0.08333 0.416666,-0.25 0.5,-0.5 0.08333,-0.25 0.125,-0.541667 0.125,-0.875 v -1 -1 c 0,-0.3333333 -0.04167,-0.625 -0.125,-0.875 -0.08333,-0.25 -0.25,-0.4166667 -0.5,-0.5 -0.25,-0.083333 -0.541667,-0.125 -0.875,-0.125 h -1 -1 -1 -1 z m 0,6 c -0.333334,0 -0.625,0.04167 -0.875,0.125 -0.25,0.08333 -0.375,0.208333 -0.375,0.375 0,0.166667 0.125,0.291667 0.375,0.375 0.25,0.08333 0.541666,0.125 0.875,0.125 h 1 1 1 1 1 c 0.333333,0 0.625,-0.04167 0.875,-0.125 0.25,-0.08333 0.375,-0.208333 0.375,-0.375 0,-0.166667 -0.125,-0.291667 -0.375,-0.375 -0.25,-0.08333 -0.541667,-0.125 -0.875,-0.125 h -1 -1 -1 -1 z" transform="translate(-22.305085,0.20338983)"/></g></svg>