<svg xmlns="http://www.w3.org/2000/svg" xmlns:svg="http://www.w3.org/2000/svg" id="svg2" width="12" height="11.75" version="1.1" viewBox="0 0 12 11.75"><metadata id="metadata8"/><g id="g18" transform="translate(-1,-1.25)"><path style="fill:#fff;fill-opacity:1" id="path14" d="M 5,1.5 Q 5.25,1.25 5.5,1.25 5.75,1.25 6,1.5 6.25,1.75 6.5,2 6.75,2.25 7,2.5 7.25,2.75 7.5,3 7.75,3.25 8,3.5 8.25,3.75 8.5,3.75 8.75,3.75 9,3.5 9.25,3.25 9.5,3.25 9.75,3.25 10,3.5 10.25,3.75 10.5,4 10.75,4.25 11,4.5 11.25,4.75 11.5,5 11.75,5.25 12,5.5 12.25,5.75 12.5,6 12.75,6.25 12.875,6.625 13,7 13,7.5 q 0,0.5 0,1 0,0.5 0,1 0,0.5 0,1 0,0.5 0,1 0,0.5 -0.125,0.875 -0.125,0.375 -0.5,0.5 Q 12,13 11.5,13 11,13 10.5,13 10,13 9.5,13 9,13 8.5,13 8,13 7.5,13 7,13 6.5,13 6,13 5.5,13 5,13 4.5,13 4,13 3.5,13 3,13 2.5,13 2,13 1.625,12.875 1.25,12.75 1.125,12.375 1,12 1,11.5 1,11 1,10.5 1,10 1,9.5 1,9 1,8.5 1,8 1,7.5 1,7 1,6.5 1,6 1.125,5.625 1.25,5.25 1.5,5 1.75,4.75 2,4.5 2.25,4.25 2.5,4 2.75,3.75 3,3.5 3.25,3.25 3.5,3 3.75,2.75 4,2.5 4.25,2.25 4.5,2 4.75,1.75 5,1.5 M 10.5,12 q 0.5,0 0.875,-0.125 0.375,-0.125 0.5,-0.5 Q 12,11 12,10.5 12,10 12,9.5 12,9 12,8.5 12,8 11.875,7.625 11.75,7.25 11.5,7 11.25,6.75 11,6.5 10.75,6.25 10.5,6 10.25,5.75 10,5.5 9.75,5.25 9.5,5.25 9.25,5.25 9,5.5 8.75,5.75 8.5,5.75 8.25,5.75 8,5.5 7.75,5.25 7.5,5 7.25,4.75 7,4.5 6.75,4.25 6.5,4 6.25,3.75 6,3.5 5.75,3.25 5.5,3.25 5.25,3.25 5,3.5 4.75,3.75 4.5,4 4.25,4.25 4,4.5 3.75,4.75 3.5,5 3.25,5.25 3,5.5 2.75,5.75 2.5,6 2.25,6.25 2.125,6.625 2,7 2,7.5 q 0,0.5 0,1 0,0.5 0,1 0,0.5 0,1 0,0.5 0.125,0.875 0.125,0.375 0.5,0.5 Q 3,12 3.5,12 q 0.5,0 1,0 0.5,0 1,0 0.5,0 1,0 0.5,0 1,0 0.5,0 1,0 0.5,0 1,0 0.5,0 1,0"/></g></svg>