<svg xmlns="http://www.w3.org/2000/svg" xmlns:svg="http://www.w3.org/2000/svg" id="svg2" width="8" height="8.938" version="1.1" viewBox="0 0 8 8.938"><metadata id="metadata8"/><g id="g18" transform="translate(-2,-1.0625)"><path style="fill:#fff;fill-opacity:1" id="path14" d="M 3.125,1.625 Q 3.25,1.25 3.625,1.125 4,1 4.375,1.125 4.75,1.25 4.875,1.625 5,2 5.125,2.375 5.25,2.75 5.625,2.875 6,3 6.375,2.875 6.75,2.75 6.875,2.375 7,2 7.125,1.625 7.25,1.25 7.625,1.125 8,1 8.375,1.125 8.75,1.25 8.875,1.625 9,2 9,2.5 9,3 9,3.5 9,4 9.125,4.375 9.25,4.75 9.5,5 9.75,5.25 9.875,5.625 10,6 10,6.5 10,7 10,7.5 10,8 10,8.5 10,9 9.875,9.375 9.75,9.75 9.375,9.875 9,10 8.5,10 8,10 7.625,9.875 7.25,9.75 7,9.5 6.75,9.25 6.375,9.125 6,9 5.625,9.125 5.25,9.25 5,9.5 4.75,9.75 4.375,9.875 4,10 3.5,10 3,10 2.625,9.875 2.25,9.75 2.125,9.375 2,9 2,8.5 2,8 2,7.5 2,7 2,6.5 2,6 2.125,5.625 2.25,5.25 2.5,5 2.75,4.75 2.875,4.375 3,4 3,3.5 3,3 3,2.5 3,2 3.125,1.625 m 4.5,7.25 Q 8,9 8.375,8.875 8.75,8.75 8.875,8.375 9,8 9,7.5 9,7 9,6.5 9,6 8.875,5.625 8.75,5.25 8.5,5 8.25,4.75 8,4.5 7.75,4.25 7.375,4.125 7,4 6.5,4 6,4 5.5,4 5,4 4.625,4.125 4.25,4.25 4,4.5 3.75,4.75 3.5,5 3.25,5.25 3.125,5.625 3,6 3,6.5 3,7 3,7.5 3,8 3.125,8.375 3.25,8.75 3.625,8.875 4,9 4.375,8.875 4.75,8.75 5,8.5 5.25,8.25 5.625,8.125 6,8 6.375,8.125 6.75,8.25 7,8.5 7.25,8.75 7.625,8.875"/></g></svg>