<svg xmlns="http://www.w3.org/2000/svg" xmlns:svg="http://www.w3.org/2000/svg" id="svg2" width="9.875" height="9.938" version="1.1" viewBox="0 0 9.875 9.938"><metadata id="metadata8"/><g id="g18" transform="translate(-1.0625,-1.0625)"><path style="fill:#fff;fill-opacity:1" id="path14" d="M 5,1.5 Q 5.25,1.25 5.625,1.125 6,1 6.375,1.125 6.75,1.25 7,1.5 7.25,1.75 7.5,2 7.75,2.25 8,2.5 8.25,2.75 8.5,3 8.75,3.25 9,3.5 9.25,3.75 9.5,4 9.75,4.25 10,4.5 10.25,4.75 10.5,5 10.75,5.25 10.875,5.625 11,6 10.875,6.375 10.75,6.75 10.375,6.875 10,7 9.5,7 9,7 8.625,7.125 8.25,7.25 8.125,7.625 8,8 8,8.5 8,9 8,9.5 8,10 7.875,10.375 7.75,10.75 7.375,10.875 7,11 6.5,11 6,11 5.5,11 5,11 4.625,10.875 4.25,10.75 4.125,10.375 4,10 4,9.5 4,9 4,8.5 4,8 3.875,7.625 3.75,7.25 3.375,7.125 3,7 2.5,7 2,7 1.625,6.875 1.25,6.75 1.125,6.375 1,6 1.125,5.625 1.25,5.25 1.5,5 1.75,4.75 2,4.5 2.25,4.25 2.5,4 2.75,3.75 3,3.5 3.25,3.25 3.5,3 3.75,2.75 4,2.5 4.25,2.25 4.5,2 4.75,1.75 5,1.5 M 5.625,9.875 Q 6,10 6.375,9.875 6.75,9.75 6.875,9.375 7,9 7,8.5 7,8 7,7.5 7,7 7.125,6.625 7.25,6.25 7.625,6.125 8,6 8.375,5.875 8.75,5.75 8.75,5.5 8.75,5.25 8.5,5 8.25,4.75 8,4.5 7.75,4.25 7.5,4 7.25,3.75 7,3.5 6.75,3.25 6.375,3.125 6,3 5.625,3.125 5.25,3.25 5,3.5 4.75,3.75 4.5,4 4.25,4.25 4,4.5 3.75,4.75 3.5,5 3.25,5.25 3.25,5.5 3.25,5.75 3.625,5.875 4,6 4.375,6.125 4.75,6.25 4.875,6.625 5,7 5,7.5 5,8 5,8.5 5,9 5.125,9.375 q 0.125,0.375 0.5,0.5"/></g></svg>